<?xml version="1.0" encoding="utf-8"?>
<!-- Generator: Adobe Illustrator 26.0.1, SVG Export Plug-In . SVG Version: 6.00 Build 0)  -->
<svg version="1.1" id="Layer_1" xmlns="http://www.w3.org/2000/svg" xmlns:xlink="http://www.w3.org/1999/xlink" x="0px" y="0px"
	 viewBox="0 0 425 444" style="enable-background:new 0 0 425 444;" xml:space="preserve">
<style type="text/css">
	.st0{fill:#FF8A00;fill-opacity:0.15;}
	.st1{fill:#EF790C;}
	.st2{clip-path:url(#SVGID_00000114054485166175974400000004860726669835973279_);}
	.st3{clip-path:url(#SVGID_00000059273654778070255000000016073409794532244622_);}
	.st4{opacity:0.5;}
	.st5{fill:#FFFFFF;}
</style>
<path class="st0" d="M12,16h337c2.8,0,5,2.2,5,5v342c0,2.8-2.2,5-5,5H12c-2.8,0-5-2.2-5-5V21C7,18.2,9.2,16,12,16z"/>
<path class="st1" d="M81,64h339c2.8,0,5,2.2,5,5v370c0,2.8-2.2,5-5,5H81c-2.8,0-5-2.2-5-5V69C76,66.2,78.2,64,81,64z"/>
<g>
	<defs>
		<rect id="SVGID_1_" x="309" y="0" width="102" height="47"/>
	</defs>
	<clipPath id="SVGID_00000075154366412502338310000010600126553228827312_">
		<use xlink:href="#SVGID_1_"  style="overflow:visible;"/>
	</clipPath>
	<g style="clip-path:url(#SVGID_00000075154366412502338310000010600126553228827312_);">
		<path class="st1" d="M331.3,0.2c-4.9,3.2-9.3,7.1-13.1,11.6c-1.9,2.2-3.7,4.6-5.3,7.1c-1.6,2.4-3,5.1-3.6,7.9
			c-0.6,2.7-0.3,5.5,1.6,7.6c1.6,1.9,4.1,2.7,6.4,3c2.7,0.4,5.5,0.2,8.2-0.1c3-0.3,5.9-0.9,8.8-1.8c6.5-1.9,12.7-5,18.1-9.2
			c0.5-0.4-0.2-0.7-0.6-0.6c-7.2,1.5-14,4.6-19.9,9.2c-1.5,1.1-2.8,2.3-4.2,3.6c-1.2,1.2-2.6,2.8-2.6,4.7c0,3.7,4.8,3.7,7.3,3.6
			c8.2-0.4,16-3.5,23.6-6.8c7.7-3.4,15.2-7,22.7-10.9c7.5-3.9,14.9-8,22.2-12.3c0.9-0.5,1.8-1,2.7-1.6c0.3-0.2,0.5-0.5,0.2-0.8
			c-0.4-0.2-1,0-1.3,0.2c-6.9,4.1-13.9,8-21,11.8c-7.1,3.8-14.2,7.3-21.5,10.7c-7,3.2-14.2,6.6-21.8,8c-1.9,0.4-3.9,0.6-5.8,0.7
			c-1.4,0-2.9,0-4.1-0.7c-1.4-0.9-1.6-2.6-0.8-4c0.8-1.6,2.3-2.8,3.6-3.9c5.2-4.6,11.5-8,18.2-9.8c0.8-0.2,1.6-0.4,2.5-0.6l-0.6-0.6
			c-4.5,3.5-9.6,6.2-15,7.9c-2.7,0.9-5.5,1.6-8.3,2c-2.6,0.4-5.3,0.7-7.9,0.6c-2.3-0.1-4.7-0.6-6.6-2.1c-2-1.6-2.8-4.2-2.6-6.7
			c0.3-2.8,1.5-5.4,2.9-7.7s3.1-4.7,4.8-6.9c4-4.9,8.7-9.2,13.9-12.6c0.2-0.2,0.5-0.5,0.1-0.7C332.1-0.1,331.6,0.1,331.3,0.2
			L331.3,0.2z"/>
		<path class="st1" d="M391.9,15.9c5.9-2,11.9-3.6,18.1-4.6l-0.7-0.1c0.2,0.2-2.6,2.6-2.9,2.8c-1,1-2.1,1.9-3.1,2.9
			c-2.1,1.9-4.1,3.9-6.2,5.8c-0.3,0.3-0.2,0.5,0.2,0.6c0.4,0.1,0.9-0.1,1.2-0.3c3.8-3.5,7.6-7.1,11.4-10.6c0.4-0.4,0.9-0.7,1.1-1.2
			c0.2-0.5,0-0.9-0.5-0.9c-0.5,0-1.2,0.2-1.7,0.3c-0.6,0.1-1.3,0.2-1.9,0.4c-2.4,0.5-4.9,1-7.3,1.7c-2.7,0.7-5.3,1.5-7.9,2.4
			c-0.2,0.1-0.8,0.3-0.7,0.7C391,16.1,391.6,16,391.9,15.9L391.9,15.9z"/>
	</g>
</g>
<g>
	<defs>
		
			<rect id="SVGID_00000104670526367145118460000001505292044442902406_" x="4.5" y="351.1" transform="matrix(0.9895 -0.1447 0.1447 0.9895 -55.1923 9.0964)" width="61" height="66"/>
	</defs>
	<clipPath id="SVGID_00000065772151551878139380000006103941847399059604_">
		<use xlink:href="#SVGID_00000104670526367145118460000001505292044442902406_"  style="overflow:visible;"/>
	</clipPath>
	<g style="clip-path:url(#SVGID_00000065772151551878139380000006103941847399059604_);">
		<path class="st1" d="M29.2,354c-4,10.2-7.9,20.5-11.8,30.8c-0.3,0.8,0.5,1.1,0.8,1c2.9-0.3,5.4-2.7,7.8-4.6c2.4-1.8,5-3.9,7.4-5.9
			c4.9-4.1,9.6-8.5,14.2-13l-1.7-0.9c-3.7,7.1-7.2,14.5-10.8,21.8c-3.6,7.3-7.2,14.5-10.8,21.8c-2,4.1-4.1,8.2-6.1,12.4
			c-0.3,0.7-0.2,1.2,0.4,1.4c0.6,0.1,1.5-0.3,1.8-1c7.3-14.4,14.4-29,21.6-43.6c2-4.1,4.1-8.2,6.1-12.3c0.3-0.6,0.3-1.1-0.3-1.3
			c-0.6-0.2-1.3,0.2-1.7,0.7c-4.3,4.4-8.7,8.4-13.3,12.2c-2.2,1.9-4.5,3.7-6.8,5.5c-1.1,0.9-2.3,1.8-3.5,2.6c-1.2,0.9-2.3,1.8-3.6,2
			l0.8,1c3.9-10.3,7.9-20.5,11.7-30.8c0.3-0.8-0.5-1-0.8-1C30.2,352.8,29.5,353.2,29.2,354z"/>
	</g>
</g>
<g class="st4">
	<path class="st5" d="M185.8,299.2l-0.1,0.1c-1.9-4.1-3-8.7-3.5-13.7C182.6,290.6,183.9,295.1,185.8,299.2z"/>
	<path class="st5" d="M229.9,239.9c9,0,16.4-7.3,16.4-16.4c0-9-7.3-16.4-16.4-16.4s-16.4,7.3-16.4,16.4
		C213.5,232.6,220.9,239.9,229.9,239.9z"/>
	<path class="st5" d="M279.3,182.3h-57.6c-25,0-39.9,14.9-39.9,39.9v57.6c0,7.5,1.3,14,3.8,19.5c5.9,13.1,18.6,20.4,36.1,20.4h57.6
		c25,0,39.9-14.9,39.9-39.9v-15.7v-41.9C319.2,197.2,304.3,182.3,279.3,182.3z M308,254.5c-5.4-4.6-14-4.6-19.4,0L260.1,279
		c-5.4,4.6-14,4.6-19.4,0l-2.3-1.9c-4.9-4.3-12.6-4.7-18.1-1l-25.7,17.2c-1.5-3.8-2.4-8.3-2.4-13.5v-57.6
		c0-19.4,10.2-29.6,29.6-29.6h57.6c19.4,0,29.6,10.2,29.6,29.6v33L308,254.5z"/>
</g>
</svg>
